<?xml version="1.0" encoding="UTF-8"?>
<svg xmlns="http://www.w3.org/2000/svg" xmlns:xlink="http://www.w3.org/1999/xlink" width="260pt" height="244pt" viewBox="0 0 260 244" version="1.1">
<defs>
<clipPath id="clip1">
  <path d="M 138 93 L 161 93 L 161 118 L 138 118 Z M 138 93 "/>
</clipPath>
<clipPath id="clip2">
  <path d="M 139.78125 99.8125 L 138.382812 104.441406 L 148.160156 115.9375 L 150.679688 113.984375 L 150.953125 112.15625 L 154.726562 109.910156 L 156.816406 117.066406 L 160.597656 116.074219 C 160.597656 116.074219 161.851562 102.335938 147.328125 93.371094 Z M 139.78125 99.8125 "/>
</clipPath>
<clipPath id="clip3">
  <path d="M 108 99 L 122 99 L 122 118 L 108 118 Z M 108 99 "/>
</clipPath>
<clipPath id="clip4">
  <path d="M 99.410156 116.074219 L 103.199219 117.066406 L 105.277344 109.910156 L 109.066406 112.15625 L 109.332031 113.984375 L 111.847656 115.9375 L 121.628906 104.441406 L 120.230469 99.8125 L 112.691406 93.371094 C 98.167969 102.335938 99.410156 116.074219 99.410156 116.074219 "/>
</clipPath>
<clipPath id="clip5">
  <path d="M 103 94 L 122 94 L 122 118 L 103 118 Z M 103 94 "/>
</clipPath>
<clipPath id="clip6">
  <path d="M 99.410156 116.074219 L 103.199219 117.066406 L 105.277344 109.910156 L 109.066406 112.15625 L 109.332031 113.984375 L 111.847656 115.9375 L 121.628906 104.441406 L 120.230469 99.8125 L 112.691406 93.371094 C 98.167969 102.335938 99.410156 116.074219 99.410156 116.074219 "/>
</clipPath>
<clipPath id="clip7">
  <path d="M 99 93 L 122 93 L 122 118 L 99 118 Z M 99 93 "/>
</clipPath>
<clipPath id="clip8">
  <path d="M 99.410156 116.074219 L 103.199219 117.066406 L 105.277344 109.910156 L 109.066406 112.15625 L 109.332031 113.984375 L 111.847656 115.9375 L 121.628906 104.441406 L 120.230469 99.8125 L 112.691406 93.371094 C 98.167969 102.335938 99.410156 116.074219 99.410156 116.074219 "/>
</clipPath>
</defs>
<g id="surface1">
<path style=" stroke:none;fill-rule:evenodd;fill:rgb(100%,100%,100%);fill-opacity:1;" d="M 27.074219 37.4375 L 3.324219 19.199219 L 27.074219 2.101562 L 232.925781 2.101562 L 256.6875 19.199219 L 232.925781 37.4375 L 233.078125 138.695312 C 233.078125 195.757812 186.992188 242.015625 130.152344 242.015625 C 73.296875 242.015625 27.214844 195.757812 27.214844 138.695312 Z M 27.074219 37.4375 "/>
<path style=" stroke:none;fill-rule:nonzero;fill:rgb(90.196078%,0%,7.058824%);fill-opacity:1;" d="M 125.46875 127.800781 L 138.601562 127.800781 C 139.210938 127.800781 139.710938 128.304688 139.710938 128.921875 C 139.710938 129.527344 139.210938 130.027344 138.601562 130.027344 L 125.46875 130.027344 C 124.859375 130.027344 124.355469 129.527344 124.355469 128.921875 C 124.355469 128.304688 124.859375 127.800781 125.46875 127.800781 "/>
<path style=" stroke:none;fill-rule:nonzero;fill:rgb(90.196078%,0%,7.058824%);fill-opacity:1;" d="M 128.09375 111.996094 L 136.816406 111.996094 C 137.417969 111.996094 137.929688 112.503906 137.929688 113.117188 C 137.929688 113.714844 137.417969 114.222656 136.816406 114.222656 L 128.09375 114.222656 C 127.503906 114.222656 126.996094 113.714844 126.996094 113.117188 C 126.996094 112.503906 127.503906 111.996094 128.09375 111.996094 "/>
<path style=" stroke:none;fill-rule:evenodd;fill:rgb(90.196078%,0%,7.058824%);fill-opacity:1;" d="M 123.179688 131.460938 C 123.179688 131.460938 123.230469 132.363281 124.292969 132.421875 C 124.292969 132.421875 125.324219 132.386719 125.390625 131.417969 L 125.390625 112.605469 C 125.390625 112.605469 125.480469 110.75 123.761719 109.632812 C 123.761719 109.632812 121.980469 108.347656 119.960938 109.65625 C 119.960938 109.65625 118.339844 110.519531 118.339844 112.644531 L 118.339844 129.972656 C 118.339844 129.972656 118.429688 130.839844 119.464844 130.914062 C 119.464844 130.914062 120.457031 130.875 120.5625 129.863281 L 120.5625 112.628906 C 120.5625 112.628906 120.5625 111.351562 121.882812 111.316406 C 121.882812 111.316406 123.054688 111.257812 123.164062 112.660156 Z M 123.179688 131.460938 "/>
<g clip-path="url(#clip1)" clip-rule="nonzero">
<g clip-path="url(#clip2)" clip-rule="nonzero">
<path style="fill:none;stroke-width:0.558;stroke-linecap:butt;stroke-linejoin:miter;stroke:rgb(92.941176%,42.352941%,0%);stroke-opacity:1;stroke-miterlimit:3.864;" d="M 32.626447 37.083182 C 32.626447 34.02645 35.105057 31.547476 38.161445 31.547476 C 41.221013 31.547476 43.696443 34.02645 43.696443 37.083182 C 43.696443 40.139915 41.221013 42.617833 38.161445 42.617833 C 35.105057 42.617833 32.626447 40.139915 32.626447 37.083182 Z M 32.626447 37.083182 " transform="matrix(3.68465,0,0,3.698291,-10.615477,-16.43738)"/>
<path style="fill:none;stroke-width:0.558;stroke-linecap:butt;stroke-linejoin:miter;stroke:rgb(92.941176%,42.352941%,0%);stroke-opacity:1;stroke-miterlimit:3.864;" d="M 31.3776 37.083182 C 31.3776 33.336731 34.412785 30.297954 38.161445 30.297954 C 41.915406 30.297954 44.94847 33.336731 44.94847 37.083182 C 44.94847 40.83069 41.915406 43.866298 38.161445 43.866298 C 34.412785 43.866298 31.3776 40.83069 31.3776 37.083182 Z M 31.3776 37.083182 " transform="matrix(3.68465,0,0,3.698291,-10.615477,-16.43738)"/>
<path style="fill:none;stroke-width:0.558;stroke-linecap:butt;stroke-linejoin:miter;stroke:rgb(92.941176%,42.352941%,0%);stroke-opacity:1;stroke-miterlimit:3.864;" d="M 30.241129 37.083182 C 30.241129 32.708274 33.788362 29.159337 38.161445 29.159337 C 42.541949 29.159337 46.087062 32.708274 46.087062 37.083182 C 46.087062 41.455979 42.541949 45.007028 38.161445 45.007028 C 33.788362 45.007028 30.241129 41.455979 30.241129 37.083182 Z M 30.241129 37.083182 " transform="matrix(3.68465,0,0,3.698291,-10.615477,-16.43738)"/>
</g>
</g>
<g clip-path="url(#clip3)" clip-rule="nonzero">
<g clip-path="url(#clip4)" clip-rule="nonzero">
<path style=" stroke:none;fill-rule:nonzero;fill:rgb(92.941176%,42.352941%,0%);fill-opacity:1;" d="M 129.996094 142.207031 C 118.199219 142.207031 108.578125 132.550781 108.578125 120.707031 C 108.578125 108.859375 118.199219 99.214844 129.996094 99.214844 C 141.816406 99.214844 151.417969 108.859375 151.417969 120.707031 C 151.417969 132.550781 141.816406 142.207031 129.996094 142.207031 M 129.996094 101.261719 C 119.324219 101.261719 110.644531 109.984375 110.644531 120.707031 C 110.644531 131.417969 119.324219 140.136719 129.996094 140.136719 C 140.691406 140.136719 149.367188 131.417969 149.367188 120.707031 C 149.367188 109.984375 140.691406 101.261719 129.996094 101.261719 "/>
</g>
</g>
<g clip-path="url(#clip5)" clip-rule="nonzero">
<g clip-path="url(#clip6)" clip-rule="nonzero">
<path style=" stroke:none;fill-rule:nonzero;fill:rgb(92.941176%,42.352941%,0%);fill-opacity:1;" d="M 129.996094 146.824219 C 115.648438 146.824219 103.976562 135.101562 103.976562 120.707031 C 103.976562 106.292969 115.648438 94.578125 129.996094 94.578125 C 144.355469 94.578125 156.03125 106.292969 156.03125 120.707031 C 156.03125 135.101562 144.355469 146.824219 129.996094 146.824219 M 129.996094 96.652344 C 116.777344 96.652344 106.035156 107.445312 106.035156 120.707031 C 106.035156 133.96875 116.777344 144.761719 129.996094 144.761719 C 143.222656 144.761719 153.976562 133.96875 153.976562 120.707031 C 153.976562 107.445312 143.222656 96.652344 129.996094 96.652344 "/>
</g>
</g>
<g clip-path="url(#clip7)" clip-rule="nonzero">
<g clip-path="url(#clip8)" clip-rule="nonzero">
<path style=" stroke:none;fill-rule:nonzero;fill:rgb(92.941176%,42.352941%,0%);fill-opacity:1;" d="M 129.996094 151.03125 C 113.339844 151.03125 99.785156 137.429688 99.785156 120.707031 C 99.785156 103.988281 113.339844 90.375 129.996094 90.375 C 146.660156 90.375 160.230469 103.988281 160.230469 120.707031 C 160.230469 137.429688 146.660156 151.03125 129.996094 151.03125 M 129.996094 92.429688 C 114.476562 92.429688 101.839844 105.113281 101.839844 120.707031 C 101.839844 136.289062 114.476562 148.980469 129.996094 148.980469 C 145.53125 148.980469 158.164062 136.289062 158.164062 120.707031 C 158.164062 105.113281 145.53125 92.429688 129.996094 92.429688 "/>
</g>
</g>
<path style=" stroke:none;fill-rule:nonzero;fill:rgb(27.058824%,69.019608%,20.784314%);fill-opacity:1;" d="M 129.976562 144.152344 L 130.035156 144.152344 C 130.546875 144.152344 130.996094 144.578125 130.996094 145.113281 L 130.996094 158.304688 C 130.996094 158.832031 130.546875 159.265625 130.035156 159.265625 L 129.976562 159.265625 C 129.445312 159.265625 129.015625 158.832031 129.015625 158.304688 L 129.015625 145.113281 C 129.015625 144.578125 129.445312 144.152344 129.976562 144.152344 "/>
<path style=" stroke:none;fill-rule:evenodd;fill:rgb(27.058824%,69.019608%,20.784314%);fill-opacity:1;" d="M 132.929688 146.855469 L 132.929688 158.445312 C 132.929688 158.445312 132.976562 159.265625 133.917969 159.265625 C 134.851562 159.265625 134.851562 158.421875 134.851562 158.421875 L 134.851562 147.832031 C 134.851562 147.832031 138.707031 147.859375 141.214844 145.660156 C 141.214844 145.660156 141.953125 145.066406 141.425781 144.335938 C 140.949219 143.671875 140.066406 144.300781 140.066406 144.300781 C 140.066406 144.300781 137.648438 146.226562 133.988281 146.046875 C 133.988281 146.046875 133.050781 145.832031 132.929688 146.855469 "/>
<path style=" stroke:none;fill-rule:nonzero;fill:rgb(27.058824%,69.019608%,20.784314%);fill-opacity:1;" d="M 137.398438 141.207031 C 137.398438 141.734375 136.984375 142.167969 136.484375 142.167969 L 133.953125 142.167969 C 133.457031 142.167969 133.050781 141.734375 133.050781 141.207031 C 133.050781 140.652344 133.457031 140.214844 133.953125 140.214844 L 136.484375 140.214844 C 136.984375 140.214844 137.398438 140.652344 137.398438 141.207031 "/>
<path style=" stroke:none;fill-rule:nonzero;fill:rgb(27.058824%,69.019608%,20.784314%);fill-opacity:1;" d="M 135.160156 135.796875 C 135.53125 136.183594 135.550781 136.792969 135.183594 137.144531 L 133.363281 138.910156 C 133 139.261719 132.40625 139.210938 132.019531 138.820312 C 131.664062 138.445312 131.65625 137.847656 132.015625 137.492188 L 133.832031 135.734375 C 134.179688 135.386719 134.796875 135.40625 135.160156 135.796875 "/>
<path style=" stroke:none;fill-rule:evenodd;fill:rgb(27.058824%,69.019608%,20.784314%);fill-opacity:1;" d="M 140.34375 140.613281 C 140.34375 140.613281 144.742188 137.941406 140.625 130.804688 C 140.625 130.804688 139.917969 132.625 139.097656 134.300781 C 139.097656 134.300781 137.40625 137.53125 140.34375 140.613281 "/>
<path style=" stroke:none;fill-rule:evenodd;fill:rgb(27.058824%,69.019608%,20.784314%);fill-opacity:1;" d="M 144.179688 137.742188 C 144.179688 137.742188 146.339844 138.507812 146.492188 133.246094 C 146.492188 133.246094 146.5625 130.730469 144.671875 127.933594 C 144.671875 127.933594 143.769531 129.253906 142.996094 131.707031 C 142.996094 131.707031 141.515625 137.53125 144.179688 137.742188 "/>
<path style=" stroke:none;fill-rule:evenodd;fill:rgb(27.058824%,69.019608%,20.784314%);fill-opacity:1;" d="M 147.324219 133.601562 C 147.324219 133.601562 151.019531 133.804688 150.949219 129.679688 C 150.949219 129.679688 151.160156 126.457031 149.0625 122.113281 C 149.0625 122.113281 148.4375 124.703125 147.179688 126.878906 C 147.179688 126.878906 145.441406 130.027344 147.324219 131.851562 C 147.324219 131.851562 147.882812 132.769531 147.324219 133.601562 "/>
<path style=" stroke:none;fill-rule:evenodd;fill:rgb(27.058824%,69.019608%,20.784314%);fill-opacity:1;" d="M 152.417969 122.664062 C 152.417969 122.664062 150.953125 120.285156 148.230469 117.265625 C 148.230469 117.265625 147.324219 115.9375 146.191406 116.28125 C 146.191406 116.28125 147.53125 117.960938 148.019531 120.640625 C 148.019531 120.640625 148.308594 124.699219 150.046875 126.382812 C 150.046875 126.382812 151.789062 126.875 152.417969 127.648438 C 152.417969 127.652344 154.386719 126.8125 152.417969 122.664062 "/>
<path style=" stroke:none;fill-rule:evenodd;fill:rgb(27.058824%,69.019608%,20.784314%);fill-opacity:1;" d="M 154.386719 123.71875 C 154.386719 123.71875 156.816406 124 156.683594 120.710938 C 156.683594 120.710938 157.03125 118.46875 154.859375 113.5 C 154.859375 113.5 154.230469 111.316406 153.410156 112.375 C 153.410156 112.375 152.84375 113.558594 152.765625 116.285156 C 152.765625 116.285156 152.148438 119.300781 152.417969 121.054688 C 152.417969 121.054688 152.765625 123.515625 154.386719 123.71875 "/>
<path style=" stroke:none;fill-rule:evenodd;fill:rgb(27.058824%,69.019608%,20.784314%);fill-opacity:1;" d="M 156.328125 125.546875 C 156.328125 125.546875 157.03125 127.027344 159.890625 125.183594 C 159.890625 125.183594 162.609375 123.71875 163.25 119.167969 C 163.25 119.167969 159.546875 118.824219 157.03125 122.246094 C 157.03125 122.246094 155.414062 124.554688 156.328125 125.546875 "/>
<path style=" stroke:none;fill-rule:evenodd;fill:rgb(27.058824%,69.019608%,20.784314%);fill-opacity:1;" d="M 152.210938 134.097656 C 152.222656 134.164062 157.03125 135.925781 159.960938 127.851562 C 159.960938 127.851562 151.304688 127.429688 152.210938 134.097656 "/>
<path style=" stroke:none;fill-rule:evenodd;fill:rgb(27.058824%,69.019608%,20.784314%);fill-opacity:1;" d="M 147.886719 137.039062 C 147.816406 137.066406 153.261719 140.964844 158.4375 135.925781 C 158.4375 135.925781 152.710938 134.371094 147.886719 137.039062 "/>
<path style=" stroke:none;fill-rule:evenodd;fill:rgb(27.058824%,69.019608%,20.784314%);fill-opacity:1;" d="M 154.03125 141.734375 C 154.03125 141.734375 150.460938 137.171875 142.785156 140.832031 C 142.785156 140.832031 147.25 146.226562 154.03125 141.734375 "/>
<path style=" stroke:none;fill-rule:evenodd;fill:rgb(27.058824%,69.019608%,20.784314%);fill-opacity:1;" d="M 127.074219 146.855469 L 127.074219 158.445312 C 127.074219 158.445312 127.042969 159.265625 126.101562 159.265625 C 125.144531 159.265625 125.144531 158.421875 125.144531 158.421875 L 125.144531 147.832031 C 125.144531 147.832031 121.3125 147.859375 118.800781 145.660156 C 118.800781 145.660156 118.058594 145.066406 118.589844 144.335938 C 119.054688 143.671875 119.9375 144.300781 119.9375 144.300781 C 119.9375 144.300781 122.355469 146.226562 126.039062 146.046875 C 126.039062 146.046875 126.980469 145.832031 127.074219 146.855469 "/>
<path style=" stroke:none;fill-rule:nonzero;fill:rgb(27.058824%,69.019608%,20.784314%);fill-opacity:1;" d="M 122.605469 141.207031 C 122.605469 141.734375 123.011719 142.167969 123.515625 142.167969 L 126.050781 142.167969 C 126.554688 142.167969 126.980469 141.734375 126.980469 141.207031 C 126.980469 140.652344 126.554688 140.214844 126.050781 140.214844 L 123.515625 140.214844 C 123.011719 140.214844 122.605469 140.652344 122.605469 141.207031 "/>
<path style=" stroke:none;fill-rule:nonzero;fill:rgb(27.058824%,69.019608%,20.784314%);fill-opacity:1;" d="M 125.296875 135.796875 C 124.914062 136.183594 124.914062 136.792969 125.273438 137.144531 L 127.085938 138.910156 C 127.453125 139.261719 128.058594 139.210938 128.414062 138.820312 C 128.808594 138.445312 128.808594 137.847656 128.441406 137.492188 L 126.632812 135.734375 C 126.269531 135.386719 125.667969 135.40625 125.296875 135.796875 "/>
<path style=" stroke:none;fill-rule:evenodd;fill:rgb(27.058824%,69.019608%,20.784314%);fill-opacity:1;" d="M 119.671875 140.613281 C 119.671875 140.613281 115.273438 137.941406 119.394531 130.804688 C 119.394531 130.804688 120.089844 132.625 120.933594 134.300781 C 120.933594 134.300781 122.605469 137.53125 119.671875 140.613281 "/>
<path style=" stroke:none;fill-rule:evenodd;fill:rgb(27.058824%,69.019608%,20.784314%);fill-opacity:1;" d="M 115.820312 137.742188 C 115.820312 137.742188 113.664062 138.507812 113.515625 133.246094 C 113.515625 133.246094 113.453125 130.730469 115.339844 127.933594 C 115.339844 127.933594 116.265625 129.253906 117.011719 131.707031 C 117.011719 131.707031 118.496094 137.53125 115.820312 137.742188 "/>
<path style=" stroke:none;fill-rule:evenodd;fill:rgb(27.058824%,69.019608%,20.784314%);fill-opacity:1;" d="M 112.691406 133.601562 C 112.691406 133.601562 108.988281 133.804688 109.070312 129.679688 C 109.070312 129.679688 108.839844 126.457031 110.941406 122.113281 C 110.941406 122.113281 111.570312 124.703125 112.839844 126.878906 C 112.839844 126.878906 114.566406 130.027344 112.691406 131.851562 C 112.691406 131.851562 112.121094 132.769531 112.691406 133.601562 "/>
<path style=" stroke:none;fill-rule:evenodd;fill:rgb(27.058824%,69.019608%,20.784314%);fill-opacity:1;" d="M 107.585938 122.664062 C 107.585938 122.664062 109.066406 120.285156 111.773438 117.265625 C 111.773438 117.265625 112.691406 115.9375 113.808594 116.28125 C 113.808594 116.28125 112.472656 117.960938 111.984375 120.640625 C 111.984375 120.640625 111.703125 124.699219 109.960938 126.382812 C 109.960938 126.382812 108.21875 126.875 107.585938 127.648438 C 107.585938 127.652344 105.632812 126.8125 107.585938 122.664062 "/>
<path style=" stroke:none;fill-rule:evenodd;fill:rgb(27.058824%,69.019608%,20.784314%);fill-opacity:1;" d="M 105.632812 123.71875 C 105.632812 123.71875 103.199219 124 103.335938 120.710938 C 103.335938 120.710938 102.984375 118.46875 105.140625 113.5 C 105.140625 113.5 105.773438 111.316406 106.621094 112.375 C 106.621094 112.375 107.160156 113.558594 107.242188 116.285156 C 107.242188 116.285156 107.871094 119.300781 107.585938 121.054688 C 107.585938 121.054688 107.242188 123.515625 105.632812 123.71875 "/>
<path style=" stroke:none;fill-rule:evenodd;fill:rgb(27.058824%,69.019608%,20.784314%);fill-opacity:1;" d="M 103.671875 125.546875 C 103.671875 125.546875 102.984375 127.027344 100.121094 125.183594 C 100.121094 125.183594 97.390625 123.71875 96.757812 119.167969 C 96.757812 119.167969 100.453125 118.824219 102.984375 122.246094 C 102.984375 122.246094 104.589844 124.554688 103.671875 125.546875 "/>
<path style=" stroke:none;fill-rule:evenodd;fill:rgb(27.058824%,69.019608%,20.784314%);fill-opacity:1;" d="M 107.785156 134.097656 C 107.785156 134.164062 102.984375 135.925781 100.050781 127.851562 C 100.050781 127.851562 108.703125 127.429688 107.785156 134.097656 "/>
<path style=" stroke:none;fill-rule:evenodd;fill:rgb(27.058824%,69.019608%,20.784314%);fill-opacity:1;" d="M 112.121094 137.039062 C 112.203125 137.066406 106.757812 140.964844 101.582031 135.925781 C 101.582031 135.925781 107.3125 134.371094 112.121094 137.039062 "/>
<path style=" stroke:none;fill-rule:evenodd;fill:rgb(27.058824%,69.019608%,20.784314%);fill-opacity:1;" d="M 105.972656 141.734375 C 105.972656 141.734375 109.550781 137.171875 117.222656 140.832031 C 117.222656 140.832031 112.761719 146.226562 105.972656 141.734375 "/>
<path style=" stroke:none;fill-rule:nonzero;fill:rgb(0%,30.588235%,63.529412%);fill-opacity:1;" d="M 129.996094 212.335938 C 91.03125 212.335938 59.308594 180.515625 59.308594 141.378906 C 59.308594 102.257812 91.03125 70.429688 129.996094 70.429688 C 168.992188 70.429688 200.691406 102.257812 200.691406 141.378906 C 200.691406 180.515625 168.992188 212.335938 129.996094 212.335938 M 129.996094 74.394531 C 93.210938 74.394531 63.265625 104.441406 63.265625 141.378906 C 63.265625 178.316406 93.210938 208.371094 129.996094 208.371094 C 166.8125 208.371094 196.730469 178.316406 196.730469 141.378906 C 196.730469 104.441406 166.8125 74.394531 129.996094 74.394531 "/>
<path style=" stroke:none;fill-rule:nonzero;fill:rgb(0%,30.588235%,63.529412%);fill-opacity:1;" d="M 129.996094 221.238281 C 86.132812 221.238281 50.433594 185.417969 50.433594 141.378906 C 50.433594 97.34375 86.132812 61.527344 129.996094 61.527344 C 173.875 61.527344 209.566406 97.34375 209.566406 141.378906 C 209.566406 185.417969 173.875 221.238281 129.996094 221.238281 M 129.996094 65.503906 C 88.308594 65.503906 54.398438 99.535156 54.398438 141.378906 C 54.398438 183.222656 88.308594 217.265625 129.996094 217.265625 C 171.683594 217.265625 205.617188 183.222656 205.617188 141.378906 C 205.617188 99.535156 171.683594 65.503906 129.996094 65.503906 "/>
<path style=" stroke:none;fill-rule:evenodd;fill:rgb(90.196078%,0%,7.058824%);fill-opacity:1;" d="M 37.347656 21.683594 C 39.375 22.046875 41.246094 22.246094 42.980469 22.246094 L 43.160156 22.246094 L 43.160156 15.285156 C 43.160156 14.21875 43.113281 12.945312 42.980469 11.445312 L 46.820312 12.097656 C 47.664062 12.324219 48.113281 12.648438 48.113281 13.082031 C 48.113281 13.550781 47.382812 14.105469 45.921875 14.757812 L 45.921875 22.046875 L 48.113281 20.0625 L 51.003906 22.246094 C 51.121094 22.34375 51.183594 22.5 51.183594 22.753906 C 51.183594 23.261719 51.003906 23.511719 50.621094 23.511719 L 45.921875 23.511719 L 45.921875 27.777344 C 47.128906 28.460938 48.167969 29.261719 48.988281 30.15625 C 49.953125 31.125 50.433594 31.953125 50.433594 32.644531 C 50.433594 33.976562 49.953125 34.644531 48.988281 34.644531 C 48.503906 34.644531 48.167969 34.3125 47.980469 33.617188 C 47.679688 32.785156 47.371094 32.042969 46.992188 31.421875 C 46.679688 30.894531 46.320312 30.382812 45.921875 29.875 L 45.921875 53.683594 C 45.921875 54.136719 45.441406 54.378906 44.476562 54.378906 C 43.484375 54.378906 42.980469 54.136719 42.980469 53.683594 C 43.113281 51.371094 43.160156 49.914062 43.160156 49.285156 L 43.160156 32.363281 C 42.898438 33.105469 42.589844 33.847656 42.289062 34.597656 C 41.195312 37 39.75 39.503906 37.902344 42.132812 L 37.15625 41.238281 C 38.308594 38.839844 39.261719 36.535156 40.007812 34.316406 C 40.683594 32.195312 41.246094 30.121094 41.621094 28.097656 C 41.976562 26.601562 42.273438 25.070312 42.523438 23.511719 C 40.28125 23.511719 38.808594 23.5625 38.089844 23.691406 Z M 49.921875 16.910156 C 51.929688 17.289062 53.824219 17.464844 55.5625 17.464844 L 56.445312 17.464844 L 56.445312 15.652344 C 56.507812 14.78125 56.445312 13.5 56.257812 11.824219 L 60.070312 12.417969 C 60.953125 12.679688 61.382812 12.960938 61.382812 13.269531 C 61.382812 13.832031 60.652344 14.441406 59.1875 15.097656 L 59.1875 17.464844 L 62.078125 17.464844 L 64.46875 15.285156 L 67.398438 17.464844 C 67.515625 17.597656 67.582031 17.78125 67.582031 18.03125 C 67.582031 18.5 67.398438 18.746094 67.015625 18.746094 L 59.1875 18.746094 L 59.1875 24.078125 L 60.648438 24.078125 L 63.023438 21.867188 L 65.90625 24.078125 C 66.03125 24.175781 66.082031 24.328125 66.082031 24.585938 C 66.082031 25.09375 65.914062 25.347656 65.582031 25.347656 L 57.378906 25.347656 C 54.851562 25.347656 53.21875 25.398438 52.445312 25.527344 L 51.75 23.511719 C 53.421875 23.816406 54.980469 23.988281 56.445312 24.03125 L 56.445312 18.746094 L 55.5625 18.746094 C 53.046875 18.746094 51.394531 18.804688 50.621094 18.917969 Z M 51.003906 27.535156 L 54.304688 29.363281 L 61.699219 29.363281 L 63.199219 27.535156 L 65.90625 29.457031 C 66.28125 29.65625 66.46875 29.933594 66.46875 30.300781 C 66.46875 30.558594 65.859375 31.105469 64.640625 31.945312 L 64.640625 35.394531 C 64.765625 36.425781 64.828125 37.085938 64.828125 37.410156 C 64.828125 37.992188 64.714844 38.394531 64.46875 38.570312 C 64.125 38.890625 63.703125 39.035156 63.199219 39.035156 C 62.410156 39.035156 61.972656 38.753906 61.949219 38.144531 L 61.949219 37.589844 L 54.109375 37.589844 L 54.109375 38.144531 C 54.109375 39 53.554688 39.417969 52.445312 39.417969 C 51.59375 39.417969 51.183594 39.179688 51.183594 38.675781 C 51.3125 37.359375 51.371094 36.332031 51.371094 35.582031 L 51.371094 31.003906 C 51.371094 30.035156 51.230469 28.863281 51.003906 27.535156 M 54.109375 36.28125 L 61.949219 36.28125 L 61.949219 30.632812 L 54.109375 30.632812 Z M 53.003906 40.492188 C 54.148438 41.117188 55.113281 41.867188 55.878906 42.738281 C 56.628906 43.519531 57.003906 44.164062 57.003906 44.699219 C 57.003906 46.042969 56.53125 46.707031 55.5625 46.707031 C 55.199219 46.707031 54.949219 46.417969 54.8125 45.824219 C 54.605469 45.148438 54.363281 44.546875 54.109375 44.046875 C 53.652344 43.132812 53.039062 42.269531 52.25 41.425781 Z M 60.824219 40.113281 C 62.492188 40.710938 63.714844 41.238281 64.46875 41.714844 C 64.957031 41.902344 65.1875 42.15625 65.1875 42.503906 C 65.1875 43.015625 64.355469 43.367188 62.65625 43.617188 C 62.449219 44.125 62.226562 44.667969 61.949219 45.261719 C 61.722656 45.695312 61.511719 46.09375 61.292969 46.429688 C 63.683594 45.964844 66.082031 45.449219 68.46875 44.886719 L 69.03125 46.140625 C 66.292969 47.109375 63.292969 48.035156 60.035156 48.90625 C 57.488281 49.632812 55.007812 50.230469 52.640625 50.730469 C 52.308594 51.824219 51.960938 52.371094 51.554688 52.371094 C 51.058594 52.371094 50.625 51.984375 50.296875 51.242188 L 48.988281 48.15625 C 52.445312 47.875 55.769531 47.441406 59.019531 46.851562 C 59.109375 46.851562 59.1875 46.835938 59.292969 46.808594 C 59.480469 46.273438 59.664062 45.707031 59.84375 45.132812 C 60.09375 44.285156 60.296875 43.449219 60.453125 42.640625 C 60.621094 41.867188 60.71875 41.023438 60.824219 40.113281 M 67.210938 23.882812 C 69.226562 24.261719 71.097656 24.445312 72.839844 24.445312 L 73.027344 24.445312 L 73.027344 15.285156 C 73.027344 13.960938 72.972656 12.683594 72.839844 11.445312 L 76.65625 12.058594 C 77.496094 12.234375 77.917969 12.519531 77.917969 12.894531 C 77.917969 13.457031 77.1875 14.070312 75.730469 14.757812 L 75.730469 24.445312 L 77.917969 22.429688 L 80.675781 24.585938 C 80.796875 24.683594 80.855469 24.804688 80.855469 24.957031 C 80.855469 25.457031 80.675781 25.714844 80.292969 25.714844 L 75.730469 25.714844 L 75.730469 49.984375 C 75.730469 51.445312 75.273438 52.511719 74.335938 53.207031 C 73.394531 53.863281 72.429688 54.195312 71.414062 54.195312 C 71.3125 53.414062 70.9375 52.816406 70.324219 52.414062 C 69.621094 51.886719 68.195312 51.378906 66.082031 50.910156 L 66.28125 49.65625 C 69.105469 49.992188 70.871094 50.179688 71.589844 50.179688 C 72.550781 50.179688 73.027344 49.695312 73.027344 48.730469 L 73.027344 25.714844 L 72.839844 25.714844 C 70.324219 25.714844 68.671875 25.773438 67.90625 25.90625 Z M 67.777344 30.632812 C 68.945312 31.878906 69.949219 33.082031 70.792969 34.234375 C 71.421875 35.136719 71.722656 36.007812 71.722656 36.855469 C 71.722656 37.503906 71.589844 38.0625 71.3125 38.539062 C 70.933594 38.882812 70.542969 39.035156 70.09375 39.035156 C 69.785156 39.035156 69.527344 38.730469 69.335938 38.109375 C 68.878906 35.863281 67.980469 33.617188 66.648438 31.378906 Z M 67.777344 30.632812 "/>
<path style=" stroke:none;fill-rule:evenodd;fill:rgb(90.196078%,0%,7.058824%);fill-opacity:1;" d="M 95.527344 11.441406 C 97.421875 11.910156 98.777344 12.351562 99.589844 12.746094 C 100.140625 12.964844 100.417969 13.265625 100.417969 13.636719 C 100.417969 14.140625 99.589844 14.617188 97.90625 15.09375 C 96.636719 18.246094 95.378906 20.859375 94.175781 22.945312 L 95.148438 23.269531 C 95.890625 23.496094 96.285156 23.753906 96.285156 24.074219 C 96.285156 24.445312 95.78125 24.925781 94.78125 25.527344 L 94.78125 52.734375 C 94.78125 53.585938 94.296875 54 93.335938 54 C 92.410156 54 91.925781 53.832031 91.894531 53.484375 C 91.894531 53.046875 91.953125 51.523438 92.070312 48.90625 L 92.070312 27.15625 C 92.070312 26.96875 92.070312 26.695312 92.039062 26.320312 C 90.296875 29.121094 88.308594 31.667969 86.070312 33.949219 L 84.957031 33.007812 C 86.785156 30.765625 88.363281 28.460938 89.652344 26.082031 C 91.03125 23.828125 92.269531 21.367188 93.386719 18.691406 C 94.394531 16.316406 95.09375 13.910156 95.527344 11.441406 M 100.417969 19.675781 C 102.691406 20.058594 104.570312 20.230469 106.042969 20.230469 L 120.082031 20.230469 L 122.824219 17.464844 L 126.09375 20.140625 C 126.335938 20.359375 126.457031 20.550781 126.457031 20.753906 C 126.457031 21.25 126.214844 21.496094 125.714844 21.496094 L 106.042969 21.496094 C 104.164062 21.496094 102.539062 21.558594 101.175781 21.683594 Z M 96.789062 47.648438 C 99.046875 47.992188 100.941406 48.15625 102.421875 48.15625 L 122.078125 48.15625 L 125.011719 45.261719 L 128.609375 48.011719 C 128.886719 48.277344 129.015625 48.5 129.015625 48.726562 C 129.015625 49.210938 128.769531 49.460938 128.28125 49.460938 L 102.421875 49.460938 C 100.53125 49.460938 98.898438 49.535156 97.535156 49.652344 Z M 96.789062 47.648438 "/>
<path style=" stroke:none;fill-rule:evenodd;fill:rgb(90.196078%,0%,7.058824%);fill-opacity:1;" d="M 133.308594 24.445312 C 135.566406 24.792969 137.453125 24.957031 138.949219 24.957031 L 152.601562 24.957031 C 153.082031 21.9375 153.414062 18.707031 153.519531 15.28125 C 153.519531 14.027344 153.472656 12.75 153.335938 11.441406 L 157.566406 12.097656 C 158.386719 12.324219 158.78125 12.648438 158.78125 13.082031 C 158.78125 13.789062 158.0625 14.351562 156.585938 14.757812 C 156.585938 18.007812 156.257812 21.402344 155.582031 24.957031 L 169.558594 24.957031 L 172.433594 22.046875 L 176.039062 24.820312 C 176.300781 25.070312 176.441406 25.300781 176.441406 25.527344 C 176.441406 26.019531 176.191406 26.253906 175.699219 26.253906 L 155.800781 26.253906 C 156.746094 29.203125 157.808594 31.710938 159.023438 33.8125 C 160.324219 36.523438 162.097656 39.09375 164.339844 41.527344 C 166.3125 43.699219 168.378906 45.503906 170.484375 46.9375 C 172.386719 48.230469 174.492188 49.226562 176.828125 49.984375 L 176.441406 51.097656 C 175.445312 51.097656 174.75 51.308594 174.359375 51.710938 C 173.601562 52.210938 173.203125 52.679688 173.167969 53.121094 C 171.980469 52.40625 170.773438 51.53125 169.601562 50.542969 C 167.074219 48.679688 164.820312 46.527344 162.839844 44.085938 C 160.863281 41.691406 159.164062 39.128906 157.808594 36.425781 C 156.648438 34.332031 155.65625 31.746094 154.78125 28.664062 C 153.996094 31.78125 153.078125 34.476562 151.996094 36.75 C 150.441406 39.800781 148.542969 42.546875 146.308594 44.980469 C 143.234375 48.035156 139.097656 50.984375 133.867188 53.820312 L 133.121094 52.550781 C 138.207031 49.464844 142.035156 46.269531 144.589844 42.972656 C 146.816406 40.636719 148.515625 38.015625 149.714844 35.121094 C 150.847656 32.46875 151.730469 29.519531 152.347656 26.253906 L 138.949219 26.253906 C 137.054688 26.253906 135.410156 26.335938 134.054688 26.464844 Z M 133.308594 24.445312 "/>
<path style=" stroke:none;fill-rule:evenodd;fill:rgb(90.196078%,0%,7.058824%);fill-opacity:1;" d="M 193.496094 14.394531 C 192.261719 14.757812 190.742188 15.152344 188.976562 15.566406 L 189.289062 19.480469 L 191.679688 19.480469 L 193.859375 17.464844 L 196.566406 19.675781 C 196.6875 19.820312 196.753906 19.964844 196.753906 20.058594 C 196.753906 20.511719 196.566406 20.753906 196.1875 20.753906 L 189.390625 20.753906 L 189.71875 25.148438 L 191.871094 25.148438 L 194.050781 23.132812 L 196.753906 25.347656 C 196.886719 25.488281 196.9375 25.613281 196.9375 25.714844 C 196.9375 26.210938 196.753906 26.464844 196.371094 26.464844 L 189.867188 26.464844 L 190.175781 30.4375 L 215.1875 30.4375 L 215.628906 26.464844 L 215.339844 26.464844 C 212.914062 26.464844 211.269531 26.503906 210.40625 26.601562 L 209.703125 24.585938 C 211.660156 24.957031 213.535156 25.148438 215.339844 25.148438 L 215.742188 25.148438 L 216.183594 20.753906 L 215.339844 20.753906 C 212.914062 20.753906 211.269531 20.808594 210.40625 20.941406 L 209.703125 18.917969 C 211.660156 19.304688 213.535156 19.480469 215.339844 19.480469 L 216.320312 19.480469 L 216.730469 15.480469 L 214.964844 15.480469 C 212.535156 15.480469 210.886719 15.53125 210.023438 15.652344 L 209.320312 13.636719 C 211.285156 14.023438 213.167969 14.199219 214.964844 14.199219 L 216.050781 14.199219 L 217.660156 12.378906 L 219.855469 14.023438 C 220.492188 14.511719 220.792969 14.929688 220.792969 15.28125 C 220.792969 15.933594 220.347656 16.476562 219.484375 16.910156 L 217.941406 30.4375 L 219.855469 30.4375 L 221.351562 28.625 L 223.808594 30.574219 C 224.460938 31.117188 224.796875 31.558594 224.796875 31.941406 C 224.796875 32.214844 223.933594 32.511719 222.234375 32.824219 C 221.234375 33.902344 220.089844 35.074219 218.78125 36.28125 L 217.660156 35.582031 C 218.566406 34.265625 219.320312 33.007812 219.894531 31.746094 L 185.265625 31.746094 C 185.195312 32.742188 185.109375 33.441406 185.019531 33.847656 C 184.777344 34.699219 184.394531 35.378906 183.898438 35.90625 C 183.472656 36.417969 183.03125 36.667969 182.59375 36.667969 C 181.609375 36.667969 181.101562 36.238281 181.101562 35.394531 C 181.101562 35.074219 181.273438 34.726562 181.617188 34.375 C 182.269531 33.726562 182.804688 32.921875 183.253906 31.976562 C 183.761719 30.894531 184.03125 29.527344 184.03125 27.910156 L 185.304688 28.097656 L 185.304688 30.4375 L 187.425781 30.4375 L 186.222656 15.832031 C 186.222656 15 186.097656 13.960938 185.859375 12.75 L 188.546875 14.25 C 189.613281 13.757812 190.472656 13.265625 191.121094 12.804688 C 191.871094 12.332031 192.59375 11.6875 193.300781 10.886719 L 195.96875 13.265625 C 196.234375 13.457031 196.371094 13.695312 196.371094 14.023438 C 196.371094 14.605469 196.15625 14.917969 195.6875 14.917969 C 195.472656 14.917969 194.742188 14.734375 193.496094 14.394531 M 204.207031 11.636719 C 205.332031 12.03125 206.273438 12.460938 207.058594 12.894531 C 207.476562 13.125 207.699219 13.363281 207.699219 13.636719 C 207.699219 13.984375 207.097656 14.230469 205.890625 14.394531 C 205.570312 14.851562 205.195312 15.386719 204.710938 15.984375 C 205.644531 16.5625 206.359375 17.183594 206.847656 17.804688 C 207.175781 18.273438 207.316406 18.707031 207.316406 19.109375 C 207.316406 19.871094 207.015625 20.230469 206.394531 20.230469 C 205.957031 20.230469 205.570312 20.015625 205.226562 19.582031 C 204.574219 18.804688 203.941406 18.101562 203.324219 17.464844 C 203.152344 17.632812 203.019531 17.769531 202.890625 17.898438 C 202.332031 18.402344 201.636719 18.902344 200.800781 19.394531 C 200 19.820312 199.199219 20.167969 198.386719 20.425781 L 198.058594 19.480469 C 198.71875 19.167969 199.347656 18.746094 199.96875 18.175781 C 200.5 17.769531 201.078125 17.160156 201.691406 16.359375 C 201.753906 16.289062 201.800781 16.230469 201.835938 16.175781 C 200.90625 15.449219 199.675781 14.667969 198.203125 13.832031 L 199.117188 12.894531 C 200.5 13.578125 201.699219 14.214844 202.761719 14.820312 C 202.859375 14.621094 202.960938 14.445312 203.035156 14.296875 C 203.625 13.296875 204.035156 12.410156 204.207031 11.636719 M 204.207031 20.601562 C 205.332031 20.972656 206.273438 21.402344 207.058594 21.867188 C 207.476562 22.042969 207.699219 22.292969 207.699219 22.570312 C 207.699219 22.917969 207.097656 23.15625 205.890625 23.324219 C 205.511719 23.816406 205.042969 24.371094 204.488281 24.957031 C 204.675781 25.050781 204.832031 25.148438 204.992188 25.246094 C 206.058594 25.832031 206.839844 26.414062 207.375 27.019531 C 207.683594 27.453125 207.847656 27.882812 207.847656 28.285156 C 207.847656 29.007812 207.558594 29.363281 206.949219 29.363281 C 206.496094 29.363281 206.09375 29.167969 205.742188 28.761719 C 204.832031 27.808594 203.984375 27.019531 203.136719 26.351562 C 202.914062 26.550781 202.710938 26.726562 202.53125 26.882812 C 201.894531 27.382812 201.113281 27.882812 200.144531 28.378906 C 199.277344 28.777344 198.394531 29.109375 197.492188 29.363281 L 197.125 28.421875 C 197.902344 28.113281 198.644531 27.703125 199.371094 27.15625 C 199.960938 26.753906 200.609375 26.125 201.316406 25.285156 C 201.386719 25.222656 201.445312 25.179688 201.511719 25.148438 C 200.578125 24.558594 199.480469 23.945312 198.203125 23.324219 L 199.117188 22.429688 C 200.34375 22.925781 201.445312 23.429688 202.4375 23.929688 C 202.597656 23.707031 202.746094 23.472656 202.890625 23.222656 C 203.558594 22.222656 203.992188 21.351562 204.207031 20.601562 M 189.492188 35.214844 C 191.445312 35.582031 193.320312 35.769531 195.140625 35.769531 L 209.320312 35.769531 L 211.34375 33.949219 L 214.035156 36.523438 C 214.414062 36.859375 214.589844 37.28125 214.589844 37.777344 C 214.589844 38.238281 214.246094 38.480469 213.535156 38.480469 L 212.214844 38.296875 C 211.101562 38.925781 209.589844 39.660156 207.699219 40.550781 C 206.886719 40.910156 206.148438 41.238281 205.46875 41.527344 C 205.480469 41.546875 205.511719 41.578125 205.511719 41.617188 C 205.511719 41.929688 205.195312 42.222656 204.574219 42.503906 L 204.574219 44.148438 L 217.660156 44.148438 L 220.417969 41.425781 L 223.855469 44.148438 C 223.984375 44.261719 224.050781 44.445312 224.050781 44.695312 C 224.050781 45.195312 223.808594 45.449219 223.347656 45.449219 L 204.574219 45.449219 L 204.574219 51.292969 C 204.574219 52.160156 204.113281 52.863281 203.1875 53.394531 C 202.207031 54.042969 201.34375 54.378906 200.578125 54.378906 C 200.429688 53.226562 199.652344 52.511719 198.285156 52.273438 L 195.503906 51.8125 L 195.6875 50.542969 C 198.203125 50.910156 199.882812 51.097656 200.746094 51.097656 C 201.511719 51.097656 201.878906 50.785156 201.878906 50.179688 L 201.878906 45.449219 L 187.300781 45.449219 C 184.785156 45.449219 183.152344 45.503906 182.402344 45.628906 L 181.660156 43.613281 C 183.675781 43.96875 185.5625 44.148438 187.300781 44.148438 L 201.878906 44.148438 L 201.878906 43.253906 C 201.878906 41.945312 201.820312 40.730469 201.691406 39.601562 L 203.984375 40.550781 C 204.652344 40.199219 205.359375 39.769531 206.070312 39.28125 C 207.28125 38.535156 208.316406 37.777344 209.136719 37.03125 L 195.140625 37.03125 C 192.699219 37.03125 191.058594 37.085938 190.246094 37.230469 Z M 189.492188 35.214844 "/>
<path style=" stroke:none;fill-rule:evenodd;fill:rgb(0%,30.588235%,63.529412%);fill-opacity:1;" d="M 71.640625 139.207031 L 71.902344 141.222656 C 71.226562 141.378906 70.738281 141.625 70.429688 142.015625 C 70.117188 142.410156 69.976562 142.917969 70.003906 143.546875 C 70.03125 144.214844 70.179688 144.714844 70.488281 145.054688 C 70.773438 145.375 71.101562 145.53125 71.492188 145.53125 C 71.738281 145.511719 71.953125 145.441406 72.109375 145.289062 C 72.261719 145.140625 72.410156 144.875 72.535156 144.519531 C 72.617188 144.28125 72.730469 143.714844 72.914062 142.835938 C 73.164062 141.710938 73.472656 140.910156 73.851562 140.457031 C 74.398438 139.789062 75.0625 139.449219 75.878906 139.429688 C 76.421875 139.410156 76.914062 139.554688 77.375 139.8125 C 77.835938 140.101562 78.203125 140.519531 78.460938 141.070312 C 78.71875 141.617188 78.871094 142.304688 78.90625 143.097656 C 78.945312 144.390625 78.691406 145.375 78.136719 146.046875 C 77.59375 146.714844 76.855469 147.09375 75.90625 147.164062 L 75.761719 145.078125 C 76.28125 144.972656 76.65625 144.761719 76.863281 144.457031 C 77.097656 144.160156 77.1875 143.726562 77.171875 143.132812 C 77.152344 142.535156 77.015625 142.054688 76.761719 141.734375 C 76.585938 141.507812 76.363281 141.410156 76.097656 141.417969 C 75.863281 141.425781 75.664062 141.539062 75.488281 141.746094 C 75.277344 142.015625 75.0625 142.671875 74.855469 143.683594 C 74.660156 144.707031 74.433594 145.464844 74.199219 145.957031 C 73.96875 146.457031 73.632812 146.851562 73.191406 147.140625 C 72.761719 147.433594 72.21875 147.601562 71.578125 147.613281 C 70.972656 147.632812 70.429688 147.480469 69.898438 147.179688 C 69.371094 146.867188 68.964844 146.40625 68.699219 145.820312 C 68.425781 145.230469 68.277344 144.492188 68.257812 143.585938 C 68.195312 142.289062 68.472656 141.257812 69.042969 140.554688 C 69.621094 139.832031 70.488281 139.371094 71.640625 139.207031 "/>
<path style=" stroke:none;fill-rule:evenodd;fill:rgb(0%,30.588235%,63.529412%);fill-opacity:1;" d="M 79.621094 151.390625 L 75.683594 152.390625 L 76.671875 156.355469 L 80.597656 155.363281 L 81.105469 157.386719 L 71.097656 159.894531 L 70.625 157.871094 L 74.988281 156.765625 L 73.988281 152.800781 L 69.621094 153.898438 L 69.132812 151.867188 L 79.113281 149.375 Z M 79.621094 151.390625 "/>
<path style=" stroke:none;fill-rule:evenodd;fill:rgb(0%,30.588235%,63.529412%);fill-opacity:1;" d="M 81.871094 159.683594 L 82.746094 161.5625 L 77.695312 163.917969 C 76.902344 164.304688 76.390625 164.5625 76.160156 164.730469 C 75.828125 164.980469 75.605469 165.324219 75.523438 165.722656 C 75.4375 166.148438 75.523438 166.625 75.765625 167.144531 C 76.007812 167.671875 76.292969 168.039062 76.644531 168.214844 C 76.996094 168.382812 77.34375 168.40625 77.671875 168.316406 C 78.039062 168.214844 78.570312 168.011719 79.3125 167.664062 L 84.46875 165.253906 L 85.339844 167.144531 L 80.441406 169.433594 C 79.328125 169.953125 78.511719 170.285156 78.007812 170.390625 C 77.5 170.511719 77.019531 170.511719 76.5625 170.375 C 76.117188 170.238281 75.6875 170.011719 75.28125 169.628906 C 74.886719 169.253906 74.523438 168.691406 74.179688 167.945312 C 73.757812 167.058594 73.546875 166.328125 73.535156 165.769531 C 73.535156 165.222656 73.625 164.730469 73.816406 164.304688 C 74.023438 163.886719 74.296875 163.539062 74.613281 163.296875 C 75.101562 162.910156 75.867188 162.484375 76.902344 162 Z M 81.871094 159.683594 "/>
<path style=" stroke:none;fill-rule:evenodd;fill:rgb(0%,30.588235%,63.529412%);fill-opacity:1;" d="M 91.191406 175.382812 L 89.8125 176.4375 L 86.464844 171.980469 L 84.632812 173.351562 L 87.769531 177.496094 L 86.359375 178.558594 L 83.257812 174.40625 L 81.027344 176.101562 L 84.480469 180.710938 L 83.09375 181.75 L 78.371094 175.480469 L 86.601562 169.253906 Z M 91.191406 175.382812 "/>
<path style=" stroke:none;fill-rule:evenodd;fill:rgb(0%,30.588235%,63.529412%);fill-opacity:1;" d="M 93.300781 191.011719 L 91.648438 189.761719 L 94.242188 186.289062 L 94.828125 179.234375 L 96.769531 180.710938 L 96.253906 185.425781 L 100.59375 183.597656 L 102.523438 185.054688 L 95.890625 187.550781 Z M 93.300781 191.011719 "/>
<path style=" stroke:none;fill-rule:evenodd;fill:rgb(0%,30.588235%,63.529412%);fill-opacity:1;" d="M 107.425781 199.097656 L 105.398438 198.097656 L 105.617188 195.605469 L 101.929688 193.785156 L 100.121094 195.53125 L 98.140625 194.558594 L 106.261719 187.023438 L 108.234375 187.988281 Z M 105.773438 193.738281 L 106.171875 189.664062 L 103.25 192.511719 Z M 105.773438 193.738281 "/>
<path style=" stroke:none;fill-rule:evenodd;fill:rgb(0%,30.588235%,63.529412%);fill-opacity:1;" d="M 118.695312 202.335938 L 116.671875 201.828125 L 114.285156 194.296875 L 112.648438 200.824219 L 110.765625 200.355469 L 113.265625 190.324219 L 115.242188 190.816406 L 117.652344 198.53125 L 119.3125 191.839844 L 121.183594 192.308594 Z M 118.695312 202.335938 "/>
<path style=" stroke:none;fill-rule:evenodd;fill:rgb(0%,30.588235%,63.529412%);fill-opacity:1;" d="M 127.710938 193.003906 L 129.800781 192.925781 L 129.976562 198.523438 C 130.011719 199.410156 130.066406 199.984375 130.128906 200.242188 C 130.222656 200.660156 130.460938 200.992188 130.789062 201.242188 C 131.140625 201.484375 131.617188 201.597656 132.195312 201.570312 C 132.777344 201.5625 133.203125 201.417969 133.507812 201.167969 C 133.800781 200.921875 133.972656 200.613281 134.023438 200.25 C 134.054688 199.894531 134.085938 199.316406 134.039062 198.492188 L 133.847656 192.777344 L 135.921875 192.714844 L 136.113281 198.140625 C 136.15625 199.375 136.121094 200.25 136.027344 200.777344 C 135.953125 201.289062 135.769531 201.730469 135.457031 202.089844 C 135.160156 202.453125 134.773438 202.75 134.28125 202.980469 C 133.777344 203.195312 133.121094 203.320312 132.3125 203.347656 C 131.324219 203.386719 130.585938 203.304688 130.0625 203.097656 C 129.542969 202.878906 129.125 202.597656 128.824219 202.265625 C 128.535156 201.902344 128.3125 201.527344 128.203125 201.121094 C 128.058594 200.539062 127.953125 199.664062 127.902344 198.515625 Z M 127.710938 193.003906 "/>
<path style=" stroke:none;fill-rule:evenodd;fill:rgb(0%,30.588235%,63.529412%);fill-opacity:1;" d="M 148.785156 200.394531 L 146.761719 200.898438 L 141.109375 195.367188 L 142.742188 201.917969 L 140.867188 202.378906 L 138.367188 192.347656 L 140.332031 191.863281 L 146.085938 197.527344 L 144.421875 190.820312 L 146.292969 190.351562 Z M 148.785156 200.394531 "/>
<path style=" stroke:none;fill-rule:evenodd;fill:rgb(0%,30.588235%,63.529412%);fill-opacity:1;" d="M 150.386719 188.6875 L 154.25 198.265625 L 152.3125 199.050781 L 148.453125 189.472656 Z M 150.386719 188.6875 "/>
<path style=" stroke:none;fill-rule:evenodd;fill:rgb(0%,30.588235%,63.529412%);fill-opacity:1;" d="M 159.726562 183.476562 L 161.878906 194.246094 L 159.96875 195.398438 L 151.523438 188.449219 L 153.445312 187.28125 L 159.609375 192.492188 L 157.847656 184.628906 Z M 159.726562 183.476562 "/>
<path style=" stroke:none;fill-rule:evenodd;fill:rgb(0%,30.588235%,63.529412%);fill-opacity:1;" d="M 166.496094 177.632812 L 167.664062 178.929688 L 163.527344 182.660156 L 165.0625 184.359375 L 168.90625 180.898438 L 170.070312 182.179688 L 166.214844 185.660156 L 168.101562 187.746094 L 172.386719 183.890625 L 173.523438 185.183594 L 167.714844 190.441406 L 160.824219 182.757812 Z M 166.496094 177.632812 "/>
<path style=" stroke:none;fill-rule:evenodd;fill:rgb(0%,30.588235%,63.529412%);fill-opacity:1;" d="M 176.347656 182.335938 L 168.113281 176.105469 L 170.742188 172.589844 C 171.398438 171.722656 171.953125 171.132812 172.410156 170.839844 C 172.867188 170.550781 173.347656 170.445312 173.90625 170.472656 C 174.472656 170.53125 175.003906 170.734375 175.480469 171.09375 C 176.097656 171.558594 176.476562 172.136719 176.605469 172.808594 C 176.722656 173.476562 176.578125 174.21875 176.132812 175 C 176.621094 174.808594 177.066406 174.6875 177.480469 174.648438 C 177.925781 174.605469 178.597656 174.605469 179.550781 174.707031 L 181.902344 174.910156 L 180.40625 176.902344 L 177.707031 176.757812 C 176.757812 176.691406 176.125 176.679688 175.851562 176.714844 C 175.5625 176.757812 175.320312 176.832031 175.132812 176.960938 C 174.925781 177.082031 174.6875 177.34375 174.390625 177.726562 L 174.144531 178.066406 L 177.585938 180.652344 Z M 172.84375 177.074219 L 173.757812 175.839844 C 174.367188 175.046875 174.695312 174.511719 174.78125 174.257812 C 174.875 174.011719 174.875 173.773438 174.78125 173.535156 C 174.707031 173.300781 174.550781 173.074219 174.296875 172.894531 C 174.03125 172.6875 173.746094 172.589844 173.460938 172.621094 C 173.167969 172.625 172.921875 172.761719 172.675781 173 C 172.542969 173.117188 172.226562 173.515625 171.738281 174.179688 L 170.757812 175.484375 Z M 172.84375 177.074219 "/>
<path style=" stroke:none;fill-rule:evenodd;fill:rgb(0%,30.588235%,63.529412%);fill-opacity:1;" d="M 180.355469 171.019531 L 181.074219 169.101562 C 181.738281 169.289062 182.277344 169.285156 182.734375 169.089844 C 183.1875 168.894531 183.542969 168.519531 183.820312 167.941406 C 184.117188 167.34375 184.214844 166.835938 184.09375 166.402344 C 184.003906 165.960938 183.773438 165.667969 183.429688 165.507812 C 183.21875 165.386719 183 165.363281 182.785156 165.410156 C 182.578125 165.46875 182.328125 165.621094 182.054688 165.886719 C 181.882812 166.078125 181.5 166.523438 180.921875 167.199219 C 180.167969 168.09375 179.523438 168.632812 178.976562 168.867188 C 178.175781 169.183594 177.4375 169.175781 176.691406 168.8125 C 176.242188 168.578125 175.851562 168.214844 175.578125 167.773438 C 175.289062 167.289062 175.160156 166.75 175.191406 166.152344 C 175.21875 165.53125 175.421875 164.878906 175.765625 164.148438 C 176.347656 162.976562 177.003906 162.242188 177.808594 161.902344 C 178.589844 161.5625 179.433594 161.589844 180.285156 161.96875 L 179.46875 163.886719 C 178.960938 163.722656 178.527344 163.742188 178.191406 163.902344 C 177.851562 164.054688 177.5625 164.417969 177.3125 164.933594 C 177.039062 165.484375 176.949219 165.953125 177.003906 166.371094 C 177.054688 166.640625 177.210938 166.84375 177.449219 166.957031 C 177.667969 167.0625 177.886719 167.0625 178.136719 166.941406 C 178.457031 166.8125 178.949219 166.328125 179.59375 165.53125 C 180.261719 164.71875 180.8125 164.160156 181.246094 163.832031 C 181.6875 163.515625 182.171875 163.316406 182.679688 163.28125 C 183.203125 163.226562 183.753906 163.332031 184.335938 163.621094 C 184.859375 163.871094 185.3125 164.273438 185.605469 164.789062 C 185.941406 165.3125 186.074219 165.894531 186.042969 166.546875 C 186.003906 167.203125 185.800781 167.933594 185.398438 168.742188 C 184.820312 169.917969 184.109375 170.683594 183.273438 171.046875 C 182.421875 171.40625 181.449219 171.394531 180.355469 171.019531 "/>
<path style=" stroke:none;fill-rule:evenodd;fill:rgb(0%,30.588235%,63.529412%);fill-opacity:1;" d="M 178.988281 156.644531 L 188.796875 159.835938 L 188.148438 161.828125 L 178.367188 158.628906 Z M 178.988281 156.644531 "/>
<path style=" stroke:none;fill-rule:evenodd;fill:rgb(0%,30.588235%,63.529412%);fill-opacity:1;" d="M 181.273438 155.660156 L 179.558594 155.320312 L 181.121094 147.261719 L 182.824219 147.597656 L 182.25 150.601562 L 190.648438 152.226562 L 190.257812 154.285156 L 181.855469 152.640625 Z M 181.273438 155.660156 "/>
<path style=" stroke:none;fill-rule:evenodd;fill:rgb(0%,30.588235%,63.529412%);fill-opacity:1;" d="M 191.597656 141.070312 L 191.546875 143.144531 L 187.226562 143.078125 L 181.183594 146.75 L 181.242188 144.296875 L 185.359375 141.945312 L 181.316406 139.488281 L 181.363281 137.089844 L 187.269531 140.992188 Z M 191.597656 141.070312 "/>
<path style=" stroke:none;fill-rule:nonzero;fill:rgb(0%,30.588235%,63.529412%);fill-opacity:1;" d="M 130.152344 244 C 72.289062 244 25.246094 196.769531 25.246094 138.695312 L 25.097656 38.429688 L 0 19.152344 L 26.429688 0.117188 L 233.5625 0.117188 L 260 19.152344 L 234.917969 38.421875 L 235.0625 138.695312 C 235.0625 196.769531 188 244 130.152344 244 M 6.65625 19.25 L 29.046875 36.464844 L 29.1875 138.695312 C 29.1875 194.574219 74.484375 240.019531 130.152344 240.019531 C 185.816406 240.019531 231.097656 194.574219 231.097656 138.695312 L 230.945312 36.464844 L 253.351562 19.25 L 232.292969 4.089844 L 27.714844 4.089844 Z M 6.65625 19.25 "/>
</g>
</svg>
